<svg width="48" height="48" viewBox="0 0 48 48" fill="none" xmlns="http://www.w3.org/2000/svg">
<rect width="48" height="48" fill="#2A2660"/>
<path d="M18.2491 41.2142C18.1443 40.7821 17.5072 37.7285 16.8332 34.4285C15.2477 26.6654 14.8609 25.4467 13.7219 24.6243C12.919 24.0447 12.8537 23.8754 13.1938 23.2538C13.8061 22.1347 13.6523 19.823 12.7197 16.1292C10.7601 8.36734 10.4574 7.60979 8.91083 6.59666V6.59666C8.64081 6.41977 8.76605 6 9.08886 6H11.6308H14.3631C14.7902 6 15.0796 6.43486 14.9146 6.82884V6.82884C14.664 7.4277 14.7156 8.39886 15.1009 10.3288C15.3941 11.798 16.1805 15.9342 16.8485 19.5204C17.5164 23.1066 18.1888 26.5138 18.3427 27.0918V27.0918C18.4278 27.4114 18.8747 27.4292 18.9849 27.1174L19.1778 26.5714C19.4832 25.7071 20.6699 22.1137 21.8149 18.5859C23.7963 12.4813 24.0769 11.7474 24.3238 12.0238C24.3823 12.0892 25.5788 15.7018 26.9827 20.0517C28.3866 24.4016 29.6297 27.873 29.7452 27.766C29.8607 27.6589 30.373 25.3214 30.8837 22.5714C31.3943 19.8214 32.1876 15.6482 32.6464 13.2976C33.5761 8.53516 33.6784 6.8504 33.069 6.34286C32.7488 6.0762 33.4921 6.00141 36.4141 6.00636C40.0157 6.01284 41.5158 6.99643 40.8438 7.46965C40.4582 7.74115 38.5772 7.21135 38.3431 7.46965C37.8771 7.98365 36.8365 10.9541 36.2556 13.4286C36.0527 14.2929 35.582 16.2214 35.2097 17.7143C34.4223 20.8714 34.3945 21.5024 34.9833 22.8571C35.3931 23.8 35.3612 23.9081 34.4254 24.7485C33.3363 25.7264 32.8068 27.5853 30.8731 37.2189C30.3203 39.9731 29.765 41.9685 29.5667 41.9134C29.2003 41.8117 28.1952 38.2757 25.896 29C25.117 25.8571 24.3705 23.1169 24.237 22.9105C24.1035 22.7041 23.638 23.9898 23.2026 25.7676C22.7671 27.5454 21.6601 31.8928 20.7427 35.4285C19.8252 38.9642 19.0738 41.8892 19.0729 41.9285C19.072 41.9678 18.9291 42 18.7554 42C18.5817 42 18.3539 41.6464 18.2491 41.2142Z" fill="white"/>
</svg>
